<?xml version="1.0" standalone="no"?>
<!DOCTYPE svg PUBLIC "-//W3C//DTD SVG 20010904//EN"
 "http://www.w3.org/TR/2001/REC-SVG-20010904/DTD/svg10.dtd">
<svg version="1.0" xmlns="http://www.w3.org/2000/svg"
 width="170px" height="170px" viewBox="0 0 300.000000 300.000000"
 preserveAspectRatio="xMidYMid meet">
<metadata>
Created by potrace 1.15, written by Peter Selinger 2001-2017
</metadata>
<g transform="translate(0.000000,300.000000) scale(0.100000,-0.100000)"
fill="#000000" stroke="none">
<path d="M1353 1926 c-135 -26 -180 -78 -121 -142 26 -28 29 -39 34 -124 5
-86 4 -92 -13 -85 -99 40 -244 -13 -228 -84 l6 -29 -73 -10 -73 -10 82 0 c73
1 86 -2 115 -24 50 -38 66 -44 161 -67 119 -28 238 -36 312 -21 165 33 356
102 407 147 10 9 34 18 55 20 47 5 103 31 103 49 0 7 -8 17 -17 23 -25 13 -5
20 72 23 70 3 81 22 14 26 -44 3 -140 -23 -231 -62 -24 -10 -67 -16 -118 -16
l-80 0 4 33 c3 17 5 58 5 90 1 54 4 61 36 90 26 23 35 39 35 62 0 43 -24 62
-117 92 -98 31 -262 39 -370 19z m279 -11 c121 -21 209 -61 177 -80 -6 -4 -47
-13 -92 -20 -69 -12 -73 -14 -29 -12 29 1 52 -2 53 -8 0 -5 3 -4 6 3 2 6 9 10
14 6 18 -11 9 -23 -23 -30 -18 -4 -36 -9 -40 -10 -5 -1 -22 -2 -39 -3 -18 0
-28 -5 -24 -11 4 -6 12 -7 18 -4 7 4 9 4 5 -1 -10 -11 -108 -17 -108 -6 0 5
10 12 23 14 19 4 18 4 -5 6 -20 1 -28 -4 -28 -15 0 -14 -10 -16 -77 -10 -43 3
-85 8 -93 10 -44 12 -59 19 -55 26 2 4 -7 12 -21 19 -16 7 -24 17 -21 26 4 9
-2 15 -16 17 -12 2 -23 11 -25 20 -4 23 46 48 132 63 96 18 168 18 268 0z
m-32 -205 c0 -6 -14 -10 -31 -10 -28 0 -29 -1 -14 -17 13 -13 18 -14 25 -3 5
9 19 11 44 6 41 -8 58 -26 23 -26 -41 0 -138 -23 -130 -30 4 -4 40 -4 78 0 39
5 72 7 73 5 6 -6 -45 -36 -69 -40 -12 -3 -27 -9 -33 -15 -5 -5 -36 -10 -69
-10 -32 0 -67 -4 -77 -10 -10 -5 -42 -11 -71 -14 -30 -2 -42 -2 -26 1 15 2 25
8 22 13 -3 5 -13 6 -22 3 -11 -4 -14 -3 -9 5 4 7 22 12 39 13 31 1 31 1 -8 10
-22 5 -43 13 -47 17 -10 10 35 8 52 -3 10 -6 12 -4 7 9 -4 9 -3 14 2 11 5 -3
12 -1 16 5 3 5 -14 15 -39 22 -48 13 -57 22 -30 32 8 3 12 2 9 -4 -4 -6 9 -10
29 -10 20 0 36 -4 36 -10 0 -5 5 -10 11 -10 23 0 1 25 -29 32 -18 5 -32 14
-32 22 0 10 31 13 135 14 84 1 135 -2 135 -8z m-357 -159 c30 -12 42 -48 18
-55 -9 -2 -41 -7 -71 -11 -116 -13 -131 -16 -121 -29 7 -9 35 -10 106 -3 53 5
98 7 100 5 3 -2 -3 -21 -13 -41 -15 -32 -20 -36 -42 -30 -14 3 -35 7 -47 7
-11 1 -19 4 -16 9 4 7 2 8 -35 12 -26 3 -74 44 -66 56 3 5 0 9 -5 9 -16 0 -13
46 2 59 8 6 16 8 20 5 3 -3 14 -1 24 5 22 13 113 14 146 2z"/>
<path d="M802 1248 c-7 -7 -45 -15 -85 -18 -59 -4 -72 -8 -75 -23 -5 -26 18
-51 32 -36 8 8 8 13 -1 16 -29 11 -10 23 32 21 25 0 45 -3 45 -5 0 -11 -57
-52 -72 -53 -10 0 -18 -6 -18 -14 0 -17 -37 -46 -58 -46 -12 0 -12 3 -2 15 15
18 7 30 -15 22 -17 -7 -21 -52 -5 -62 10 -6 62 17 99 46 13 11 37 19 54 19 29
0 30 -1 12 -20 -22 -24 -13 -55 13 -45 9 4 22 7 27 6 59 -7 94 -6 115 2 39 15
84 13 97 -3 10 -13 15 -13 46 2 27 13 38 14 45 5 7 -8 51 -12 141 -11 107 0
134 4 149 17 23 21 39 22 22 2 -18 -22 -5 -30 26 -16 15 7 31 8 38 3 18 -14
204 -9 218 7 11 10 6 11 -27 6 -37 -6 -39 -5 -21 9 26 21 14 51 -14 36 -11 -6
-24 -19 -29 -29 -11 -20 -48 -34 -56 -22 -2 4 10 22 28 39 31 30 35 31 160 38
79 4 127 3 127 -3 0 -5 -12 -20 -26 -34 -34 -32 -57 -76 -44 -84 18 -11 102
45 168 112 59 58 92 77 92 53 0 -22 -62 -79 -83 -77 -26 2 -31 -26 -6 -31 20
-4 122 93 117 110 -2 6 -11 15 -19 18 -8 4 -25 12 -38 19 -20 11 -26 10 -45
-7 -66 -59 -77 -62 -220 -65 -75 -1 -136 1 -136 5 0 4 10 14 22 22 12 9 19 19
15 23 -4 3 -20 -5 -35 -19 -15 -14 -37 -31 -50 -37 -12 -7 -20 -15 -18 -20 6
-9 -41 -61 -54 -61 -6 0 -10 7 -10 16 0 11 -6 15 -20 11 -13 -3 -20 0 -20 9 0
21 -21 17 -62 -11 -39 -26 -53 -31 -43 -15 7 11 -12 50 -24 50 -4 0 -28 -13
-52 -30 -24 -16 -50 -30 -56 -30 -21 0 -15 27 7 33 11 3 20 10 20 16 0 19 -19
12 -52 -19 -33 -32 -68 -40 -68 -16 0 8 5 18 10 21 6 4 8 11 4 16 -3 6 -20 -1
-39 -15 -41 -31 -60 -34 -46 -7 10 18 6 31 -10 31 -4 0 -21 -12 -38 -26 -17
-14 -32 -23 -32 -20 -1 3 -2 12 -3 19 -1 11 -8 13 -37 9 -5 -1 -8 -6 -4 -11 7
-12 -34 -36 -43 -26 -4 4 7 16 23 28 59 43 89 74 77 81 -6 4 -39 -20 -74 -54
-63 -60 -85 -73 -74 -45 6 17 -21 48 -36 39 -5 -4 -21 -1 -34 7 l-24 13 26 28
c19 19 34 26 48 22 28 -7 61 18 53 40 -8 19 -38 21 -55 4z"/>
<path d="M2165 1140 c-67 -62 -86 -73 -78 -42 2 10 -2 24 -11 31 -12 10 -20 9
-45 -3 -38 -20 -46 -33 -31 -51 8 -10 18 -11 35 -5 15 6 27 6 30 0 8 -13 102
-5 120 10 11 9 22 8 49 -5 28 -13 42 -15 65 -7 19 7 32 7 39 0 6 -6 19 -5 38
4 16 8 37 13 47 11 22 -6 22 2 -5 32 -11 13 -26 21 -32 17 -6 -3 -17 -7 -23
-8 -7 -1 -24 -12 -39 -23 -28 -22 -64 -28 -64 -11 0 5 18 19 39 30 45 22 76
59 62 73 -11 11 -54 -20 -94 -69 -32 -39 -47 -43 -47 -14 0 26 -30 26 -37 1
-5 -20 -31 -36 -42 -25 -3 3 10 18 28 33 71 54 85 68 73 75 -7 4 -39 -19 -77
-54z"/>
</g>
</svg>
